<?xml version="1.0" encoding="utf-8"?>
<!-- Generator: Adobe Illustrator 27.0.1, SVG Export Plug-In . SVG Version: 6.00 Build 0)  -->
<svg version="1.1" id="Isolation_Mode" xmlns="http://www.w3.org/2000/svg" xmlns:xlink="http://www.w3.org/1999/xlink" x="0px"
	 y="0px" viewBox="0 0 909.9 134.5" style="enable-background:new 0 0 909.9 134.5;" xml:space="preserve">
<path style="fill:#FFFFFF;" d="M579.2,5.8c-3.6-2.6-7.9-2.6-14.3-2.6h-70.4c-6.4,0-10.7,0-14.3,2.6c-3.6,2.4-5.4,6.6-5.4,13.7
	c0,2.5,0.2,4.6,0.7,6.5c-3.2-6.5-8.1-11.7-14.5-15.6c-12.3-7.6-27.6-8.9-40.5-8.9c-11.9,0-21.3,1.2-27,3.4
	c-11.3,4.2-11.3,11.9-11.3,19.1v36.4c-3-35-28.7-60-68.3-60c-40.4,0-67.1,26.1-69.2,62.3c-0.9-25.4-11.4-40.4-23.8-49
	c-14.1-9.7-32-12.1-51.1-12.1c-12.3,0-22.1,1-28.2,2.4c-13.9,3.2-16.1,8.9-16.1,19.7v88c0,1.5,0,2.9,0.1,4.3
	c-0.2-0.7-0.4-1.3-0.7-2.1l-39-96.5c-4-9.9-8.1-15.5-21.1-15.5c-12.7,0-17.5,5.4-21.7,15.5L2.6,113.5c-1.6,3.6-2.2,6.2-2.2,8.5
	c0,6.4,4.2,10.5,15.5,10.5c12.5,0,17.5-5.2,21.7-16.7l3.6-9.9h44.3l3.8,10.1c4.6,12.3,8.7,16.5,20.7,16.5c11.3,0,16.9-3.8,16.9-10.9
	c0-0.2,0-0.4,0-0.6c1.2,3.3,3.6,5.9,8.1,7.9c5,2.2,13.1,4,29.2,4c24,0,42.1-4,55.7-12.9c12.3-8.2,23.6-23,24.9-48.9
	c1.8,36.5,27.8,63,68.5,63c39.6,0,66-25.1,69.1-60.2v38.9c0,6.4,0,10.7,2.8,14.3c2.6,3.6,7.2,5.4,14.9,5.4c7.7,0,12.3-1.8,14.9-5.4
	c2.8-3.6,2.8-8,2.8-14.3V89.3c0,0,3,0.2,6.6,0.2c31.6,0,55.5-14.9,55.5-44.7c0-5.4-0.8-10.2-2.3-14.5c0.8,1.2,1.8,2.2,3,3
	c3.6,2.6,7.9,2.6,14.3,2.6H512V113c0,6.4,0,10.7,2.8,14.3c2.8,3.6,7.4,5.4,15.3,5.4c8,0,12.5-1.8,15.3-5.4s2.8-8,2.8-14.3V35.8h17.1
	c6.4,0,10.7,0,14.3-2.6c3.6-2.4,5.4-6.6,5.4-13.7C584.6,12.4,582.8,8.2,579.2,5.8 M51.1,78.6l12.3-33.4l12.3,33.4H51.1z
	 M169.5,102.2c-4.4,0-8.1-0.4-8.1-0.4v-69c0,0,3.6-0.6,9.7-0.6c10.7,0,19.1,1.8,25.6,7.2c6.6,5.4,11.5,14.7,11.5,28.4
	C208.2,99.4,181.4,102.2,169.5,102.2 M313.5,103c-19.7,0-32.4-13.1-32.4-35.8s12.7-35.8,32.4-35.8c19.7,0,32.4,13.1,32.4,35.8
	S333.2,103,313.5,103 M423.1,62.3c-3.2,0-5.6-0.4-5.6-0.4v-30c0,0,3-0.4,6.4-0.4c11.5,0,19.5,4.8,19.5,15.1
	C443.4,57.9,434.1,62.3,423.1,62.3 M775.2,112.9c0.2,2.4,0.4,5.4,0.4,7c0,8.3-5.4,12.7-17.5,12.7c-12.9,0-18.1-5-18.9-14.5
	l-4.4-63.4l-22.5,54.1c-3,7-6.8,12.3-17.3,12.3s-14.1-5.4-17.1-12.3l-22.5-54.3l-4.6,63.6c-0.8,9.1-5.4,14.5-18.5,14.5
	c-11.1,0-17.1-3.8-17.1-13.1c0-1.8,0.2-4.4,0.6-8.1l8.9-88c0.8-8.5,1.4-13.1,5.6-16.9c3.2-3,7.9-4.6,15.3-4.6
	c14.7,0,20.1,6.4,26.8,20.5l23.7,49.5l24-49.5c6.8-13.9,12.1-20.5,26.2-20.5c6.6,0,11.7,1.4,15.3,5.6c3.2,3.8,3.8,7.8,4.6,15.9
	L775.2,112.9z M866.1,116.5c0,6.6-1.8,10.3-5.4,12.7c-3.6,2.4-7.9,2.4-14.3,2.4h-47.3c-12.3,0-16.9-4.6-16.9-16.9V20.1
	c0-12.3,4.6-16.9,16.9-16.9h43.7c6.4,0,10.7,0,14.3,2.4s5.4,6.2,5.4,12.9c0,6.6-1.8,10.3-5.4,12.7c-3.6,2.4-7.9,2.4-14.3,2.4h-26.2
	v15.9h18.7c6.4,0,10.7,0,14.3,2.4s5.4,6.2,5.4,12.9c0,6.6-1.8,10.3-5.4,12.7C846,80,841.7,80,835.3,80h-18.7v21.3h29.8
	c6.4,0,10.7,0,14.3,2.4C864.3,106,866.1,109.8,866.1,116.5 M873,67.8c-0.4-8.1-1-41.1-1-49.3c0-4.6,0.2-8.3,2.8-11.3
	c2.8-3.4,7.9-5.4,15.1-5.4c7.2,0,12.3,2,15.1,5.4c2.6,3,2.8,6.8,2.8,11.3c0,8.1-0.6,41.1-1,49.3c-0.4,8.1-3.4,14.7-16.9,14.7
	C876.3,82.5,873.4,76,873,67.8 M909.5,113.5c0,11.5-7.9,19.7-19.7,19.7c-11.7,0-19.7-8.1-19.7-19.7c0-11.7,8-19.9,19.7-19.9
	C901.6,93.7,909.5,101.8,909.5,113.5"/>
</svg>
