<?xml version="1.0" encoding="utf-8"?>
<!-- Generator: Adobe Illustrator 27.0.1, SVG Export Plug-In . SVG Version: 6.00 Build 0)  -->
<svg version="1.1" id="Layer_1" xmlns="http://www.w3.org/2000/svg" xmlns:xlink="http://www.w3.org/1999/xlink" x="0px" y="0px"
	 viewBox="0 0 83 83" style="enable-background:new 0 0 83 83;" xml:space="preserve">
<g>
	
		<image style="overflow:visible;opacity:0.15;" width="402" height="408" xlink:href="66BFD52C.png"  transform="matrix(0.24 0 0 0.24 0.3345 -0.3069)">
	</image>
	<g>
		<g>
			<path style="fill:#FFFFFF;" d="M71.6,53.8c-1.1-0.8-2.5-1.2-3.9-1.1c-2.4,0.3-6.6,0.6-11.1,1c3-1.2,5.6-2.4,7.8-3.7
				c7.9-4.6,12.4-13.7,9.2-21.8C66.1,9.7,59.8,7.9,59.8,7.9c-7.3,5.8-13.4,13.6-18.1,21.3c-3.2-12.3-14.5-14.4-14.5-14.4v39.1
				c-3.8-4.3-7.9-9.8-7.1-13.2c0,0-4.5,3.4,5.9,13.9c-0.6,0-1.3,0.1-1.8,0.4C19.6,52,8.5,43.9,8.8,39c0,0-3.4,5,14.5,16.8
				c-2.6,2.6-2.3,3.4,1.5,9.3c3.9,6.2,17.5,10.4,17.5,10.4s2.8-3.2-1.2-9.1l15.3,3.1c4.7,0.9,11.1,0.6,14.6-2.3
				c1.5-1.3,2.8-2.9,3.4-5C75.6,57.9,73.5,55.2,71.6,53.8z M69.4,29.5c0.3,0.7,0.7,1.5,1,2.3c2.2,5.5-0.9,11.6-6.2,14.8
				c-2.1,1.2-4.6,2.4-7.6,3.4c-11.4,3.7-16.7,1.5-16.7,1.5S42.3,44,47,35.5c2.2-3.2,6-5.4,10.5-5.4c3,0,5.7,1,7.8,2.6
				c-0.8-4.4-4.9-7.7-9.8-7.7c-0.1,0-0.3,0-0.4,0C60.1,22.4,67,24,69.4,29.5z M68.6,62.7c-0.4,1.3-1.2,2.3-2.1,3
				c-0.8,0.6-1.8,1.1-3,1.4c-2.8,0.6-5.7,0.1-8.2-1.3c0,0-3.7-2.5-4.7-3.8c-1-1.3-0.4-3.4,1.3-3.8c3.9-0.9,9.2-1,12-1.2
				c2.1-0.1,4.1,1.1,4.7,3C68.8,60.8,68.9,61.7,68.6,62.7z"/>
			<path style="fill:#FFFFFF;" d="M47.8,40c1.8,2.1,4.6,3.4,7.7,3.4c4.4,0,8.1-2.7,9.4-6.4c-2-1.3-4.4-2-7-2
				C53.8,35.1,50,37,47.8,40z"/>
		</g>
	</g>
</g>
</svg>
